<?xml version="1.0" encoding="utf-8"?>
<!-- Generator: Adobe Illustrator 17.0.2, SVG Export Plug-In . SVG Version: 6.00 Build 0)  -->
<!DOCTYPE svg PUBLIC "-//W3C//DTD SVG 1.1//EN" "http://www.w3.org/Graphics/SVG/1.1/DTD/svg11.dtd">
<svg version="1.1" id="Layer_1" xmlns="http://www.w3.org/2000/svg" xmlns:xlink="http://www.w3.org/1999/xlink" x="0px" y="0px"
	 width="640px" height="168.707px" viewBox="0 0 640 168.707" enable-background="new 0 0 640 168.707" xml:space="preserve">
<g>
	<path fill="#FC4349" d="M39.767,64.343c-0.132,0.396-0.264,0.924-0.132,0.924c0.264,0,0.792-0.66,1.056-0.924
		c5.808-6.731,11.615-12.539,17.555-15.707c1.32-0.66,1.716-0.792,2.112-0.792c3.828,0,7.787,2.376,11.087,4.488
		c1.188,0.792,2.64,1.979,2.64,5.279c0,4.355-0.396,6.863-0.924,9.239c-0.264,1.056,0.132,1.98-0.66,4.224
		c-6.335,17.687-10.163,27.058-18.874,34.977c-0.924,0.792-2.508,0.924-3.696,0.924c-3.036,0-7.655-2.508-8.975-3.828
		c-3.3-3.036-5.28-6.335-6.863-9.635c-0.132-0.396-0.396-0.66-0.792-0.66c-0.264,0-0.528,0.132-0.792,0.66
		c-8.184,15.443-12.671,26.926-17.291,46.328c-0.66,2.771,0.264,4.883-1.584,5.543c-1.716,0.66-3.167,0.792-4.62,0.792
		c-1.584,0-2.771-0.396-4.092-1.848c-0.792-0.924-1.716-1.056-1.848-3.036c0-0.528,0.132-1.188,0.66-2.904
		c7.787-25.474,24.682-62.43,29.301-90.544c0.396-2.244,0.792-2.376,1.584-2.64c1.584-0.528,3.036-1.452,5.016-1.452
		c2.112,0,4.355,1.188,4.355,2.64C43.991,51.936,41.483,57.611,39.767,64.343z M40.691,80.049c-0.924,1.452-0.924,2.112-0.924,3.828
		c0,2.904,4.224,14.123,7.523,14.123c0.396,0,0.66-0.132,1.056-0.528c4.356-4.091,9.372-17.158,9.767-18.742
		c4.884-14.915,5.148-20.59,5.148-20.986s-0.396-0.396-0.528-0.396c-0.132,0-0.396,0-0.924,0.264
		C52.57,63.551,45.971,71.735,40.691,80.049z"/>
	<path fill="#FC4349" d="M102.329,53.52c-2.244,3.96-2.508,3.036-3.432,5.016c-4.62,9.899-5.808,16.499-9.239,26.926
		c-0.528,1.584-0.792,2.772-1.056,4.224s-0.66,2.904-0.66,4.224c0,1.188,0.264,2.112,0.66,2.112c1.056,0,1.848-0.264,2.904-0.792
		c2.376-1.188,5.543-3.167,10.427-8.711c1.056-1.188,2.771-2.64,4.883-5.279c4.092-5.016,10.559-9.107,16.895-26.002
		c0.396-1.056,2.244-3.959,3.432-3.959c1.452,0,1.98,0.924,4.092,0.924c4.355,0,4.62,2.904,4.62,4.751
		c0,2.376-1.584,4.62-3.036,6.731l-2.508,3.96c-3.3,5.016-5.939,10.823-8.051,17.026c-1.056,3.168-6.335,16.763-7.259,19.798
		c-1.188,3.696-1.584,4.751-1.584,5.28c0,0.264,0.264,0.264,0.528,0.264s0.792-0.132,1.188-0.132c0.792,0,2.376,0.528,2.376,1.452
		c0,1.98-0.396,2.772-0.792,3.3c-8.976,11.879-13.331,24.682-15.971,37.221c-1.056,5.147-1.188,13.199-8.184,14.123
		c-1.056,0.132-1.979,0.528-3.563,0.528c-1.98,0-5.016-0.264-5.016-5.016c0-2.508,0.924-6.071,2.772-10.427
		c2.904-6.863,6.863-15.046,11.351-22.57c0.264-2.376,4.355-15.707,7.919-26.53c2.244-6.996,2.376-7.919,2.376-8.315
		c0-0.264-0.132-0.528-0.396-0.528s-0.792,0.396-1.848,1.452c-4.62,4.619-13.199,10.163-14.519,10.163
		c-5.543,0-9.635-1.716-12.539-5.28c-0.66-0.792-0.792-1.056-0.792-3.167c0-18.215,8.447-30.886,13.595-48.044
		c0.792-2.64,3.696-3.828,4.62-3.828c0.66,0,2.376,0.66,3.696,0.66s3.432,1.188,3.432,2.904
		C103.649,50.22,103.385,51.672,102.329,53.52z"/>
	<path fill="#FC4349" d="M163.175,52.86c-1.32,2.771-3.036,7.787-3.036,8.183c0,0.264,0.264,0.396,0.528,0.396
		c0.396,0,1.98-0.264,3.3-0.528c5.808-1.188,13.331-3.96,17.687-6.6c0.66-0.396,1.188-0.66,1.452-0.66
		c2.244,0,6.467,1.848,6.467,3.432c0,1.716-1.452,3.828-4.355,5.016c-3.564,1.452-3.564,1.848-5.939,2.771
		c-6.468,2.508-17.687,5.016-20.458,5.939c-1.188,0.396-1.98,1.056-2.508,1.98c-1.056,1.848-1.716,4.355-2.244,6.335
		c-0.396,1.452-1.188,2.772-1.452,4.224c-0.792,4.355-5.279,15.575-6.071,22.174c-0.132,1.188-1.452,4.619-3.3,5.543
		c-0.528,0.264-1.452,0.396-1.979,0.396c-1.584,0-3.696-0.66-4.752-1.452c-1.056-0.792-1.452-1.98-1.452-3.167
		c0-1.056,0.132-2.772,0.528-3.96c3.3-9.767,5.676-21.25,9.899-31.413c0.132-0.396,0.264-0.66,0.264-0.924
		c0-0.264-0.132-0.528-0.66-0.792c-4.752-2.376-5.544-5.808-8.58-8.315c-0.66-0.528-0.66-1.188-0.66-1.584
		c0-0.924,0.528-1.188,1.584-1.716c0.792-0.396,1.452-0.66,2.64-0.66c2.904,0,6.203,2.112,8.579,2.112
		c1.188,0,1.98-0.66,2.244-1.848c0.396-1.452,1.056-3.432,2.112-6.203c3.168-8.051,6.731-18.347,11.219-27.982
		c0.792-1.716,0.924-1.716,1.452-1.716c2.112,0,2.376-0.66,3.696-0.66c1.188,0,3.432,0.396,5.016,1.056
		c0.66,0.264,1.188,0.528,1.188,0.924c0,0.264,0,0.66-0.132,1.452C173.734,34.909,167.398,43.885,163.175,52.86z"/>
	<path fill="#FC4349" d="M209.372,113.179c-0.792,0-1.716-0.132-3.828-0.924c-5.015-1.848-7.127-6.071-7.127-12.539
		c0-4.092,0.792-8.976,2.508-14.783c1.716-5.808,3.299-9.767,4.883-13.595c0.396-0.924,0.528-1.32,0.528-1.584
		c0-0.132-0.132-0.264-0.264-0.264c-0.264,0-0.792,0.396-1.716,1.452c-8.976,10.295-18.083,25.605-25.87,34.713
		c-0.66,0.792-0.792,0.924-1.452,1.32c-1.32,0.792-3.168,1.716-5.016,1.716c-0.66,0-4.751-1.584-6.863-3.696
		c-0.396-0.396-0.528-1.056-0.528-1.452c0-1.452,0.66-1.32,1.188-3.564c4.092-17.554,13.727-36.561,24.946-58.867
		c5.544-11.087,12.935-23.23,19.402-36.165c0.792-1.583,2.112-1.848,3.432-1.848c1.32,0,2.111,0.264,2.771,0.264
		c1.188,0,2.64,0.924,3.696,1.979c0.924,0.924,1.188,1.584,1.188,3.3c0,3.432-2.772,5.543-6.204,9.767
		c-1.188,1.452-1.452,2.112-2.508,3.564c-11.879,16.366-22.306,43.292-32.205,64.278c-1.056,2.244-1.188,2.508-1.188,2.64
		s0,0.264,0.264,0.264c0.132,0,0.264-0.132,0.924-1.056c10.691-14.915,20.326-26.266,29.961-36.693
		c1.848-1.979,2.508-2.64,3.695-3.036c1.188-0.396,2.376-0.66,3.036-0.66c1.32,0,3.828,0.528,4.883,0.924
		c0.924,0.396,1.98,1.584,1.98,2.508c0,3.828-1.584,6.467-3.96,10.559c-1.848,3.167-2.375,5.543-3.432,8.051
		c-3.563,8.447-6.863,19.27-6.863,28.246c0,6.335,1.32,7.655,3.3,8.711c0.792,0.396,2.244,0.528,3.3,0.792
		c0.528,0.132,0.924,0.66,0.924,1.056c0,0.528-0.396,1.056-0.66,1.716c-0.396,0.924-1.583,1.583-2.508,1.848
		C212.408,112.519,211.088,113.179,209.372,113.179z"/>
	<path fill="#FC4349" d="M269.163,55.236c5.28,0,8.315-0.396,11.351-0.396c4.224,0,8.184,1.32,8.184,3.432
		c0,1.716-3.3,2.112-3.696,2.771c-0.264,0.528-0.528,0.66-1.452,0.792c-2.64,0.396-6.467,1.716-9.899,2.244
		c-2.64,0.396-4.224,0.396-5.147,0.396c-1.056,0-1.32,0.132-1.584,1.056c-3.432,14.123-8.183,26.397-16.63,35.373
		c-3.696,3.959-7.259,7.787-11.879,7.787c-1.188,0-2.376-0.264-3.168-0.66c-5.016-2.375-8.711-5.279-9.899-8.315
		c-1.452-3.696-1.98-7.655-1.98-10.955c0-10.823,5.412-20.326,11.483-29.434c1.848-2.771,1.848-2.112,3.168-3.959
		c4.224-5.939,9.767-12.143,15.575-12.143c2.112,0,4.751,0.528,6.995,2.508c1.056,0.924,1.452,1.188,1.848,2.244
		C263.62,51.276,265.335,55.236,269.163,55.236z M254.645,54.708c-0.396-1.32-0.792-2.244-1.32-2.244s-1.32,0.528-1.98,1.32
		c-0.528,0.66-1.848,1.32-2.508,2.244c-4.091,5.147-16.499,21.514-16.499,36.957c0,0.396,0,0.924,0.396,1.848
		c0.396,1.056,1.98,3.564,3.168,4.355c0.396,0.264,0.792,0.264,1.188,0.264c1.32,0,1.98-0.792,2.508-1.056
		c0.924-0.396,1.188-0.792,2.244-2.376c7.655-11.483,14.783-21.778,14.783-35.109c0-0.528,0-2.112-0.132-2.772
		c-0.132-0.924-0.396-1.056-0.792-1.452C255.041,56.028,254.776,55.236,254.645,54.708z"/>
	<path fill="#FC4349" d="M291.072,49.296c1.056-1.583,0.924-1.848,2.112-2.903c1.056-0.924,2.64-1.32,4.62-1.32
		c3.036,0,4.751,0.792,5.279,1.98c0.264,0.66,0.66,1.716,0.66,2.376c0,1.452-0.66,3.828-2.904,6.203
		c-1.452,1.584-5.147,5.808-8.447,11.879c-1.848,3.432-5.016,9.767-9.371,20.59c-0.924,2.376-2.64,8.843-2.64,9.239
		c0,0.528,0,1.32,0.396,1.32c0.792,0,1.32-0.396,2.244-1.716c17.818-25.342,27.585-30.621,30.489-36.825
		c2.375-5.016,2.904-5.412,4.62-5.412c1.979,0,2.64,1.188,4.752,1.32c1.451,0.132,2.64,1.98,2.64,3.564
		c0,0.528-0.66,2.375-1.32,3.432c-4.751,7.787-7.259,12.803-9.239,19.534c-0.792,2.64-1.583,9.239-1.583,11.879
		c0,2.376,0.792,4.356,1.056,5.676c0.396,2.375,3.696,4.091,4.62,4.751c1.056,0.792,1.979,1.716,1.979,3.036
		c0,0.924-0.924,3.168-3.431,3.168c-1.056,0-5.28-0.396-6.864-1.848c-1.848-1.716-3.432-2.244-5.147-4.62
		c-1.584-2.112-2.244-4.883-2.244-8.183c0-7.787,1.188-10.031,1.188-10.427c0-0.264-0.132-0.528-0.396-0.528
		c-0.264,0-0.396,0-0.792,0.528c-5.412,7.127-8.975,11.615-12.143,16.103c-2.771,3.96-3.828,3.828-5.675,5.808
		c-1.056,1.188-3.696,1.452-4.884,1.452c-1.584,0-7.787-3.96-9.503-6.072c-0.528-0.66-0.924-2.375-0.924-3.828
		c0-4.092,1.188-5.016,1.584-7.919c0.528-3.828,4.224-12.803,6.467-17.95C282.229,64.475,285.265,58.139,291.072,49.296z"/>
	<path fill="#202D44" d="M329.086,13.659h63.75v20.59h-40.389v19.534h35.505V72.79h-35.505v35.901h-23.361V13.659z"/>
	<path fill="#202D44" d="M408.413,79.522c8.711,6.863,18.874,11.615,27.189,11.615c7.26,0,11.483-3.432,11.483-9.107
		c0-5.543-3.3-8.051-18.479-12.407c-19.271-5.543-27.586-13.199-27.586-28.377c0-20.062,15.442-29.169,34.845-29.169
		c12.539,0,24.683,4.62,34.186,13.199L459.36,39.529c-6.995-5.279-15.179-8.711-22.966-8.711c-6.863,0-11.351,2.64-11.351,7.919
		c0,6.204,5.411,7.919,21.118,13.067c17.554,5.676,25.209,12.539,25.209,27.718c0,19.402-13.727,30.885-35.505,30.885
		c-15.574,0-28.641-5.808-38.804-16.63L408.413,79.522z"/>
	<path fill="#202D44" d="M483.384,13.659h37.353c21.91,0,34.713,11.879,34.713,31.941c0,20.458-11.747,32.997-35.9,32.997h-12.804
		v30.093h-23.361V13.659z M506.745,33.722v25.87h11.483c9.503,0,14.123-4.884,14.123-12.935c0-7.919-4.224-12.935-13.595-12.935
		H506.745z"/>
	<path fill="#202D44" d="M572.477,79.522c8.711,6.863,18.874,11.615,27.189,11.615c7.26,0,11.483-3.432,11.483-9.107
		c0-5.543-3.3-8.051-18.479-12.407c-19.271-5.543-27.586-13.199-27.586-28.377c0-20.062,15.442-29.169,34.845-29.169
		c12.539,0,24.683,4.62,34.186,13.199l-10.691,14.254c-6.995-5.279-15.179-8.711-22.966-8.711c-6.863,0-11.351,2.64-11.351,7.919
		c0,6.204,5.411,7.919,21.118,13.067c17.554,5.676,25.209,12.539,25.209,27.718c0,19.402-13.727,30.885-35.505,30.885
		c-15.574,0-28.641-5.808-38.805-16.63L572.477,79.522z"/>
</g>
<line fill="none" stroke="#6DBCDB" stroke-width="8" stroke-linecap="round" stroke-miterlimit="10" x1="632" y1="134.367" x2="119" y2="134.367"/>
<line fill="none" stroke="#6DBCDB" stroke-width="8" stroke-linecap="round" stroke-miterlimit="10" x1="82" y1="134.367" x2="27" y2="134.367"/>
<g>
</g>
<g>
</g>
<g>
</g>
<g>
</g>
<g>
</g>
<g>
</g>
<g>
</g>
<g>
</g>
<g>
</g>
<g>
</g>
<g>
</g>
<g>
</g>
<g>
</g>
<g>
</g>
<g>
</g>
</svg>
